For English, please scroll down!

************************************************************
Streep wil racen - Racing Stripes (2005)

Verenigde Staten, Familie / Avontuur, 102 minuten. Geregisseerd door Frederik Du Chau. Met de stemmen van Frankie Muniz, Dustin Hoffman en Whoopi Goldberg.

Een babyzebra, per ongeluk achtergelaten door een circus, wordt met enige aarzeling opgenomen in een boerderij. Bij het zien van racepaarden die dus zijn liefde voor rennen delen meent hij ook een racepaard te zijn. Met de hulp van de andere dieren van de boerderij en een tienermeisje, dat ervan droomt ooit een jockey te worden, overwint hij bestaande vooroordelen en zijn eigen twijfels. Hij zal zijn droom proberen te verwezenlijken en hij zal het tijdens de belangrijkste race, de Kentucky Open, moeten opnemen tegen echte volbloeden.

Taal: Engels & Nederlands 5.1 & 2.0
Ondertitelingen: Nederlands.
Categorie : Beeld
Formaat : DVD5 
Bron : Retail
Menu: Ja, Nederlandstalig.
Genre : Familie
Weblink : http://www.moviemeter.nl/?film=24457

******************************
USA, Family/ Adventure, 102 minutes. Directed by Frederik Du Chau. With voices of Frankie Muniz, Dustin Hoffman and Whoopi Goldberg.

An abandoned zebra (voice of Frankie Muniz) grows up believing he is a racehorse, and, with the help of his barnyard friends and a teenage girl (Hayden Panettiere), sets out to achieve his dream of racing with thoroughbreds. 

Language: English and Dutch 5.1 & 2.0
Subtitles: Dutch
Category : Movie 
Format : DVD5
Source : Retail
Menu: Yes, Dutch language.
Genre : Family
Weblink : http://www.imdb.com/title/tt0376105/

Video and Audio information:
******************************
Video
ID                               : 224 (0xE0)
Format                           : MPEG Video
Format version                   : Version 2
Format profile                   : Main@Main
Format settings, BVOP            : Yes
Format settings, Matrix          : Default
Duration                         : 32mn 10s
Bit rate mode                    : Variable
Bit rate                         : 2 775 Kbps
Nominal bit rate                 : 9 800 Kbps
Width                            : 720 pixels
Height                           : 576 pixels
Display aspect ratio             : 2.35:1
Frame rate                       : 25.000 fps
Standard                         : PAL
Color space                      : YUV
Chroma subsampling               : 4:2:0
Bit depth                        : 8 bits
Scan type                        : Interlaced
Scan order                       : Top Field First
Bits/(Pixel*Frame)               : 0.268
Stream size                      : 639 MiB (62%)

Audio #1
ID                               : 128 (0x80)
Format                           : AC-3
Format/Info                      : Audio Coding 3
Mode extension                   : CM (complete main)
Duration                         : 32mn 10s
Bit rate mode                    : Constant
Bit rate                         : 448 Kbps
Channel(s)                       : 6 channels
Channel positions                : Front: L C R, Side: L R, LFE
Sampling rate                    : 48.0 KHz
Bit depth                        : 16 bits
Video delay                      : 16ms
Stream size                      : 103 MiB (10%)

Audio #2
ID                               : 130 (0x82)
Format                           : AC-3
Format/Info                      : Audio Coding 3
Mode extension                   : CM (complete main)
Duration                         : 32mn 10s
Bit rate mode                    : Constant
Bit rate                         : 192 Kbps
Channel(s)                       : 2 channels
Channel positions                : Front: L R
Sampling rate                    : 48.0 KHz
Bit depth                        : 16 bits
Stream size                      : 44.2 MiB (4%)

Audio #3
ID                               : 131 (0x83)
Format                           : AC-3
Format/Info                      : Audio Coding 3
Mode extension                   : CM (complete main)
Duration                         : 32mn 10s
Bit rate mode                    : Constant
Bit rate                         : 192 Kbps
Channel(s)                       : 2 channels
Channel positions                : Front: L R
Sampling rate                    : 48.0 KHz
Bit depth                        : 16 bits
Video delay                      : 16ms
Stream size                      : 44.2 MiB (4%)

Audio #4
ID                               : 137 (0x89)
Format                           : DTS
Format/Info                      : Digital Theater Systems
Duration                         : 32mn 10s
Bit rate mode                    : Constant
Bit rate                         : 755 Kbps
Channel(s)                       : 6 channels
Channel positions                : Front: L C R, Side: L R, LFE
Sampling rate                    : 48.0 KHz
Bit depth                        : 16 bits
Stream size                      : 174 MiB (17%)

******************************
Hornigold TBS